<mxfile host="app.diagrams.net" agent="Mozilla/5.0 (Windows NT 10.0; Win64; x64) AppleWebKit/537.36 (KHTML, like Gecko) Chrome/129.0.0.0 Safari/537.36" version="24.7.17">
  <diagram name="Page-1" id="24IIi-WoPi7P5QcJeDWH">
    <mxGraphModel dx="1450" dy="972" grid="0" gridSize="10" guides="1" tooltips="1" connect="1" arrows="1" fold="1" page="0" pageScale="1" pageWidth="850" pageHeight="1100" math="0" shadow="0">
      <root>
        <mxCell id="0" />
        <mxCell id="1" parent="0" />
        <mxCell id="d0d8-uecb2wYhvY41Iku-1" value="KHACHHANG" style="rounded=0;whiteSpace=wrap;html=1;" vertex="1" parent="1">
          <mxGeometry x="-161" y="69" width="120" height="60" as="geometry" />
        </mxCell>
        <mxCell id="d0d8-uecb2wYhvY41Iku-2" value="MAKH" style="ellipse;whiteSpace=wrap;html=1;" vertex="1" parent="1">
          <mxGeometry x="-255" y="-35" width="86" height="57" as="geometry" />
        </mxCell>
        <mxCell id="d0d8-uecb2wYhvY41Iku-3" value="HOTEN" style="ellipse;whiteSpace=wrap;html=1;" vertex="1" parent="1">
          <mxGeometry x="-135" y="-35" width="86" height="57" as="geometry" />
        </mxCell>
        <mxCell id="d0d8-uecb2wYhvY41Iku-4" value="SDT" style="ellipse;whiteSpace=wrap;html=1;" vertex="1" parent="1">
          <mxGeometry x="-7" y="5" width="86" height="57" as="geometry" />
        </mxCell>
        <mxCell id="d0d8-uecb2wYhvY41Iku-5" value="" style="endArrow=none;html=1;rounded=0;fontSize=12;startSize=8;endSize=8;curved=1;entryX=0.728;entryY=0.989;entryDx=0;entryDy=0;entryPerimeter=0;exitX=0;exitY=0;exitDx=0;exitDy=0;" edge="1" parent="1" source="d0d8-uecb2wYhvY41Iku-1" target="d0d8-uecb2wYhvY41Iku-2">
          <mxGeometry width="50" height="50" relative="1" as="geometry">
            <mxPoint x="175" y="224" as="sourcePoint" />
            <mxPoint x="225" y="174" as="targetPoint" />
          </mxGeometry>
        </mxCell>
        <mxCell id="d0d8-uecb2wYhvY41Iku-6" value="" style="endArrow=none;html=1;rounded=0;fontSize=12;startSize=8;endSize=8;curved=1;entryX=0.326;entryY=0.982;entryDx=0;entryDy=0;entryPerimeter=0;exitX=0.5;exitY=0;exitDx=0;exitDy=0;" edge="1" parent="1" source="d0d8-uecb2wYhvY41Iku-1" target="d0d8-uecb2wYhvY41Iku-3">
          <mxGeometry width="50" height="50" relative="1" as="geometry">
            <mxPoint x="-112" y="64" as="sourcePoint" />
            <mxPoint x="-182" y="31" as="targetPoint" />
          </mxGeometry>
        </mxCell>
        <mxCell id="d0d8-uecb2wYhvY41Iku-7" value="" style="endArrow=none;html=1;rounded=0;fontSize=12;startSize=8;endSize=8;curved=1;entryX=0;entryY=1;entryDx=0;entryDy=0;exitX=1;exitY=0.5;exitDx=0;exitDy=0;" edge="1" parent="1" source="d0d8-uecb2wYhvY41Iku-1" target="d0d8-uecb2wYhvY41Iku-4">
          <mxGeometry width="50" height="50" relative="1" as="geometry">
            <mxPoint x="-102" y="74" as="sourcePoint" />
            <mxPoint x="-97" y="31" as="targetPoint" />
          </mxGeometry>
        </mxCell>
        <mxCell id="d0d8-uecb2wYhvY41Iku-8" value="NHOMHANG" style="rounded=0;whiteSpace=wrap;html=1;" vertex="1" parent="1">
          <mxGeometry x="338" y="75" width="120" height="60" as="geometry" />
        </mxCell>
        <mxCell id="d0d8-uecb2wYhvY41Iku-9" value="MANHOM" style="ellipse;whiteSpace=wrap;html=1;" vertex="1" parent="1">
          <mxGeometry x="237" y="-3" width="86" height="57" as="geometry" />
        </mxCell>
        <mxCell id="d0d8-uecb2wYhvY41Iku-10" value="TENNHOM" style="ellipse;whiteSpace=wrap;html=1;" vertex="1" parent="1">
          <mxGeometry x="344" y="-22" width="86" height="57" as="geometry" />
        </mxCell>
        <mxCell id="d0d8-uecb2wYhvY41Iku-11" value="" style="endArrow=none;html=1;rounded=0;fontSize=12;startSize=8;endSize=8;curved=1;entryX=1;entryY=1;entryDx=0;entryDy=0;exitX=0;exitY=0.25;exitDx=0;exitDy=0;" edge="1" parent="1" source="d0d8-uecb2wYhvY41Iku-8" target="d0d8-uecb2wYhvY41Iku-9">
          <mxGeometry width="50" height="50" relative="1" as="geometry">
            <mxPoint x="-31" y="109" as="sourcePoint" />
            <mxPoint x="15" y="63" as="targetPoint" />
          </mxGeometry>
        </mxCell>
        <mxCell id="d0d8-uecb2wYhvY41Iku-12" value="" style="endArrow=none;html=1;rounded=0;fontSize=12;startSize=8;endSize=8;curved=1;entryX=0.581;entryY=1;entryDx=0;entryDy=0;exitX=0.5;exitY=0;exitDx=0;exitDy=0;entryPerimeter=0;" edge="1" parent="1" source="d0d8-uecb2wYhvY41Iku-8" target="d0d8-uecb2wYhvY41Iku-10">
          <mxGeometry width="50" height="50" relative="1" as="geometry">
            <mxPoint x="348" y="100" as="sourcePoint" />
            <mxPoint x="321" y="55" as="targetPoint" />
          </mxGeometry>
        </mxCell>
        <mxCell id="d0d8-uecb2wYhvY41Iku-13" value="MATHANG" style="rounded=0;whiteSpace=wrap;html=1;" vertex="1" parent="1">
          <mxGeometry x="241" y="296" width="120" height="60" as="geometry" />
        </mxCell>
        <mxCell id="d0d8-uecb2wYhvY41Iku-14" value="TENHANG" style="ellipse;whiteSpace=wrap;html=1;" vertex="1" parent="1">
          <mxGeometry x="424" y="348" width="86" height="57" as="geometry" />
        </mxCell>
        <mxCell id="d0d8-uecb2wYhvY41Iku-15" value="MAHANG" style="ellipse;whiteSpace=wrap;html=1;" vertex="1" parent="1">
          <mxGeometry x="271" y="392" width="86" height="57" as="geometry" />
        </mxCell>
        <mxCell id="d0d8-uecb2wYhvY41Iku-16" value="DONGIA" style="ellipse;whiteSpace=wrap;html=1;" vertex="1" parent="1">
          <mxGeometry x="372" y="414" width="86" height="57" as="geometry" />
        </mxCell>
        <mxCell id="d0d8-uecb2wYhvY41Iku-17" value="DVT" style="ellipse;whiteSpace=wrap;html=1;" vertex="1" parent="1">
          <mxGeometry x="157" y="394" width="86" height="57" as="geometry" />
        </mxCell>
        <mxCell id="d0d8-uecb2wYhvY41Iku-18" value="HOADON" style="rounded=0;whiteSpace=wrap;html=1;" vertex="1" parent="1">
          <mxGeometry x="-167" y="311" width="120" height="60" as="geometry" />
        </mxCell>
        <mxCell id="d0d8-uecb2wYhvY41Iku-19" value="SOHOADON" style="ellipse;whiteSpace=wrap;html=1;" vertex="1" parent="1">
          <mxGeometry x="-314" y="376" width="86" height="57" as="geometry" />
        </mxCell>
        <mxCell id="d0d8-uecb2wYhvY41Iku-20" value="NGAYLAPHOADON" style="ellipse;whiteSpace=wrap;html=1;" vertex="1" parent="1">
          <mxGeometry x="-202" y="412" width="127" height="59" as="geometry" />
        </mxCell>
        <mxCell id="d0d8-uecb2wYhvY41Iku-21" value="NGAYBAN" style="ellipse;whiteSpace=wrap;html=1;" vertex="1" parent="1">
          <mxGeometry x="-321" y="291" width="86" height="57" as="geometry" />
        </mxCell>
        <mxCell id="d0d8-uecb2wYhvY41Iku-22" value="" style="endArrow=none;html=1;rounded=0;fontSize=12;startSize=8;endSize=8;curved=1;entryX=1;entryY=0.5;entryDx=0;entryDy=0;exitX=0;exitY=0.5;exitDx=0;exitDy=0;" edge="1" parent="1" source="d0d8-uecb2wYhvY41Iku-18" target="d0d8-uecb2wYhvY41Iku-21">
          <mxGeometry width="50" height="50" relative="1" as="geometry">
            <mxPoint x="-151" y="79" as="sourcePoint" />
            <mxPoint x="-182" y="31" as="targetPoint" />
          </mxGeometry>
        </mxCell>
        <mxCell id="d0d8-uecb2wYhvY41Iku-23" value="" style="endArrow=none;html=1;rounded=0;fontSize=12;startSize=8;endSize=8;curved=1;exitX=0;exitY=1;exitDx=0;exitDy=0;" edge="1" parent="1" source="d0d8-uecb2wYhvY41Iku-18" target="d0d8-uecb2wYhvY41Iku-19">
          <mxGeometry width="50" height="50" relative="1" as="geometry">
            <mxPoint x="-157" y="351" as="sourcePoint" />
            <mxPoint x="-225" y="330" as="targetPoint" />
          </mxGeometry>
        </mxCell>
        <mxCell id="d0d8-uecb2wYhvY41Iku-24" value="" style="endArrow=none;html=1;rounded=0;fontSize=12;startSize=8;endSize=8;curved=1;exitX=0.5;exitY=1;exitDx=0;exitDy=0;" edge="1" parent="1" source="d0d8-uecb2wYhvY41Iku-18">
          <mxGeometry width="50" height="50" relative="1" as="geometry">
            <mxPoint x="-157" y="381" as="sourcePoint" />
            <mxPoint x="-130" y="411" as="targetPoint" />
          </mxGeometry>
        </mxCell>
        <mxCell id="d0d8-uecb2wYhvY41Iku-25" value="" style="endArrow=none;html=1;rounded=0;fontSize=12;startSize=8;endSize=8;curved=1;exitX=0;exitY=1;exitDx=0;exitDy=0;entryX=0.5;entryY=0;entryDx=0;entryDy=0;" edge="1" parent="1" source="d0d8-uecb2wYhvY41Iku-13" target="d0d8-uecb2wYhvY41Iku-17">
          <mxGeometry width="50" height="50" relative="1" as="geometry">
            <mxPoint x="-97" y="381" as="sourcePoint" />
            <mxPoint x="-120" y="421" as="targetPoint" />
          </mxGeometry>
        </mxCell>
        <mxCell id="d0d8-uecb2wYhvY41Iku-26" value="" style="endArrow=none;html=1;rounded=0;fontSize=12;startSize=8;endSize=8;curved=1;exitX=0.315;exitY=0.983;exitDx=0;exitDy=0;entryX=0.277;entryY=0.095;entryDx=0;entryDy=0;exitPerimeter=0;entryPerimeter=0;" edge="1" parent="1" source="d0d8-uecb2wYhvY41Iku-13" target="d0d8-uecb2wYhvY41Iku-15">
          <mxGeometry width="50" height="50" relative="1" as="geometry">
            <mxPoint x="251" y="366" as="sourcePoint" />
            <mxPoint x="210" y="404" as="targetPoint" />
          </mxGeometry>
        </mxCell>
        <mxCell id="d0d8-uecb2wYhvY41Iku-27" value="" style="endArrow=none;html=1;rounded=0;fontSize=12;startSize=8;endSize=8;curved=1;exitX=1;exitY=1;exitDx=0;exitDy=0;" edge="1" parent="1" source="d0d8-uecb2wYhvY41Iku-13" target="d0d8-uecb2wYhvY41Iku-16">
          <mxGeometry width="50" height="50" relative="1" as="geometry">
            <mxPoint x="289" y="365" as="sourcePoint" />
            <mxPoint x="305" y="407" as="targetPoint" />
          </mxGeometry>
        </mxCell>
        <mxCell id="d0d8-uecb2wYhvY41Iku-28" value="" style="endArrow=none;html=1;rounded=0;fontSize=12;startSize=8;endSize=8;curved=1;exitX=1;exitY=0.5;exitDx=0;exitDy=0;entryX=0;entryY=0.5;entryDx=0;entryDy=0;" edge="1" parent="1" source="d0d8-uecb2wYhvY41Iku-13" target="d0d8-uecb2wYhvY41Iku-14">
          <mxGeometry width="50" height="50" relative="1" as="geometry">
            <mxPoint x="371" y="366" as="sourcePoint" />
            <mxPoint x="408" y="426" as="targetPoint" />
          </mxGeometry>
        </mxCell>
        <mxCell id="d0d8-uecb2wYhvY41Iku-29" value="" style="edgeStyle=entityRelationEdgeStyle;fontSize=12;html=1;endArrow=ERoneToMany;rounded=0;startSize=8;endSize=8;curved=1;exitX=0.25;exitY=1;exitDx=0;exitDy=0;entryX=0.5;entryY=0;entryDx=0;entryDy=0;" edge="1" parent="1" source="d0d8-uecb2wYhvY41Iku-8" target="d0d8-uecb2wYhvY41Iku-30">
          <mxGeometry width="100" height="100" relative="1" as="geometry">
            <mxPoint x="150" y="249" as="sourcePoint" />
            <mxPoint x="250" y="149" as="targetPoint" />
            <Array as="points" />
          </mxGeometry>
        </mxCell>
        <mxCell id="d0d8-uecb2wYhvY41Iku-31" value="" style="edgeStyle=entityRelationEdgeStyle;fontSize=12;html=1;endArrow=ERoneToMany;rounded=0;startSize=8;endSize=8;curved=1;exitX=0.5;exitY=1;exitDx=0;exitDy=0;" edge="1" parent="1" source="d0d8-uecb2wYhvY41Iku-30">
          <mxGeometry width="100" height="100" relative="1" as="geometry">
            <mxPoint x="301" y="296" as="sourcePoint" />
            <mxPoint x="311" y="293" as="targetPoint" />
            <Array as="points">
              <mxPoint x="404" y="136" />
            </Array>
          </mxGeometry>
        </mxCell>
        <mxCell id="d0d8-uecb2wYhvY41Iku-30" value="HAVE/HAS" style="shape=rhombus;double=1;perimeter=rhombusPerimeter;whiteSpace=wrap;html=1;align=center;" vertex="1" parent="1">
          <mxGeometry x="300" y="186" width="120" height="60" as="geometry" />
        </mxCell>
        <mxCell id="d0d8-uecb2wYhvY41Iku-32" value="1-1" style="text;html=1;align=center;verticalAlign=middle;resizable=0;points=[];autosize=1;strokeColor=none;fillColor=none;fontSize=16;" vertex="1" parent="1">
          <mxGeometry x="389" y="143" width="41" height="31" as="geometry" />
        </mxCell>
        <mxCell id="d0d8-uecb2wYhvY41Iku-33" value="1-n" style="text;html=1;align=center;verticalAlign=middle;resizable=0;points=[];autosize=1;strokeColor=none;fillColor=none;fontSize=16;" vertex="1" parent="1">
          <mxGeometry x="334" y="260" width="41" height="31" as="geometry" />
        </mxCell>
        <mxCell id="d0d8-uecb2wYhvY41Iku-34" value="" style="edgeStyle=entityRelationEdgeStyle;fontSize=12;html=1;endArrow=ERmany;startArrow=ERmany;rounded=0;startSize=8;endSize=8;curved=1;exitX=1;exitY=0.5;exitDx=0;exitDy=0;entryX=0;entryY=0.5;entryDx=0;entryDy=0;" edge="1" parent="1" source="d0d8-uecb2wYhvY41Iku-35" target="d0d8-uecb2wYhvY41Iku-13">
          <mxGeometry width="100" height="100" relative="1" as="geometry">
            <mxPoint x="128" y="318" as="sourcePoint" />
            <mxPoint x="228" y="218" as="targetPoint" />
          </mxGeometry>
        </mxCell>
        <mxCell id="d0d8-uecb2wYhvY41Iku-36" value="" style="edgeStyle=entityRelationEdgeStyle;fontSize=12;html=1;endArrow=ERmany;startArrow=ERmany;rounded=0;startSize=8;endSize=8;curved=1;exitX=1;exitY=0.5;exitDx=0;exitDy=0;entryX=0;entryY=0.5;entryDx=0;entryDy=0;" edge="1" parent="1" source="d0d8-uecb2wYhvY41Iku-18" target="d0d8-uecb2wYhvY41Iku-35">
          <mxGeometry width="100" height="100" relative="1" as="geometry">
            <mxPoint x="-47" y="341" as="sourcePoint" />
            <mxPoint x="241" y="326" as="targetPoint" />
          </mxGeometry>
        </mxCell>
        <mxCell id="d0d8-uecb2wYhvY41Iku-35" value="CHITIETHOADON" style="shape=rhombus;double=1;perimeter=rhombusPerimeter;whiteSpace=wrap;html=1;align=center;" vertex="1" parent="1">
          <mxGeometry x="28" y="291" width="138" height="78" as="geometry" />
        </mxCell>
        <mxCell id="d0d8-uecb2wYhvY41Iku-37" value="1-n" style="text;html=1;align=center;verticalAlign=middle;resizable=0;points=[];autosize=1;strokeColor=none;fillColor=none;fontSize=16;" vertex="1" parent="1">
          <mxGeometry x="177" y="296" width="41" height="31" as="geometry" />
        </mxCell>
        <mxCell id="d0d8-uecb2wYhvY41Iku-38" value="1-n" style="text;html=1;align=center;verticalAlign=middle;resizable=0;points=[];autosize=1;strokeColor=none;fillColor=none;fontSize=16;" vertex="1" parent="1">
          <mxGeometry x="-49" y="307" width="41" height="31" as="geometry" />
        </mxCell>
        <mxCell id="d0d8-uecb2wYhvY41Iku-39" value="" style="endArrow=none;html=1;rounded=0;fontSize=12;startSize=8;endSize=8;curved=1;" edge="1" parent="1" source="d0d8-uecb2wYhvY41Iku-35">
          <mxGeometry width="50" height="50" relative="1" as="geometry">
            <mxPoint x="-97" y="381" as="sourcePoint" />
            <mxPoint x="31" y="397" as="targetPoint" />
          </mxGeometry>
        </mxCell>
        <mxCell id="d0d8-uecb2wYhvY41Iku-40" value="SLBAN" style="text;html=1;align=center;verticalAlign=middle;resizable=0;points=[];autosize=1;strokeColor=none;fillColor=none;fontSize=16;" vertex="1" parent="1">
          <mxGeometry x="-14.5" y="397.5" width="70" height="31" as="geometry" />
        </mxCell>
        <mxCell id="d0d8-uecb2wYhvY41Iku-41" value="" style="endArrow=none;html=1;rounded=0;fontSize=12;startSize=8;endSize=8;curved=1;exitX=0.646;exitY=0.872;exitDx=0;exitDy=0;exitPerimeter=0;" edge="1" parent="1" source="d0d8-uecb2wYhvY41Iku-35">
          <mxGeometry width="50" height="50" relative="1" as="geometry">
            <mxPoint x="82" y="365" as="sourcePoint" />
            <mxPoint x="100" y="405" as="targetPoint" />
          </mxGeometry>
        </mxCell>
        <mxCell id="d0d8-uecb2wYhvY41Iku-42" value="DONGGIABAN" style="text;html=1;align=center;verticalAlign=middle;resizable=0;points=[];autosize=1;strokeColor=none;fillColor=none;fontSize=16;" vertex="1" parent="1">
          <mxGeometry x="30" y="410" width="126" height="31" as="geometry" />
        </mxCell>
        <mxCell id="d0d8-uecb2wYhvY41Iku-43" value="" style="edgeStyle=entityRelationEdgeStyle;fontSize=12;html=1;endArrow=ERoneToMany;rounded=0;startSize=8;endSize=8;curved=1;entryX=0.5;entryY=0;entryDx=0;entryDy=0;" edge="1" parent="1" target="d0d8-uecb2wYhvY41Iku-18">
          <mxGeometry width="100" height="100" relative="1" as="geometry">
            <mxPoint x="-112" y="132" as="sourcePoint" />
            <mxPoint x="207" y="193" as="targetPoint" />
          </mxGeometry>
        </mxCell>
        <mxCell id="d0d8-uecb2wYhvY41Iku-44" value="HAVE/HAS" style="shape=rhombus;double=1;perimeter=rhombusPerimeter;whiteSpace=wrap;html=1;align=center;" vertex="1" parent="1">
          <mxGeometry x="-167" y="181" width="120" height="60" as="geometry" />
        </mxCell>
        <mxCell id="d0d8-uecb2wYhvY41Iku-45" value="1-n" style="text;html=1;align=center;verticalAlign=middle;resizable=0;points=[];autosize=1;strokeColor=none;fillColor=none;fontSize=16;" vertex="1" parent="1">
          <mxGeometry x="-135" y="255" width="41" height="31" as="geometry" />
        </mxCell>
        <mxCell id="d0d8-uecb2wYhvY41Iku-46" value="1-1" style="text;html=1;align=center;verticalAlign=middle;resizable=0;points=[];autosize=1;strokeColor=none;fillColor=none;fontSize=16;" vertex="1" parent="1">
          <mxGeometry x="-85" y="140" width="41" height="31" as="geometry" />
        </mxCell>
        <mxCell id="d0d8-uecb2wYhvY41Iku-47" value="KHACHHANG(&lt;u&gt;MAKH,&lt;/u&gt;HOTEN&lt;u&gt;,&lt;/u&gt;SDT&lt;u&gt;)&lt;/u&gt;" style="text;html=1;align=center;verticalAlign=middle;resizable=0;points=[];autosize=1;strokeColor=none;fillColor=none;fontSize=16;" vertex="1" parent="1">
          <mxGeometry x="-329.5" y="526.5" width="274" height="31" as="geometry" />
        </mxCell>
        <mxCell id="d0d8-uecb2wYhvY41Iku-48" value="NHOMHANG(&lt;u&gt;MANHOM&lt;/u&gt;,TENNHOM)" style="text;html=1;align=center;verticalAlign=middle;resizable=0;points=[];autosize=1;strokeColor=none;fillColor=none;fontSize=16;" vertex="1" parent="1">
          <mxGeometry x="-329" y="587" width="282" height="31" as="geometry" />
        </mxCell>
        <mxCell id="d0d8-uecb2wYhvY41Iku-49" value="MATHANG(&lt;u&gt;MAHANG&lt;/u&gt;,TENHANG,DONGIA,DVT,MANHOM)" style="text;html=1;align=center;verticalAlign=middle;resizable=0;points=[];autosize=1;strokeColor=none;fillColor=none;fontSize=16;" vertex="1" parent="1">
          <mxGeometry x="-329" y="656" width="440" height="31" as="geometry" />
        </mxCell>
        <mxCell id="d0d8-uecb2wYhvY41Iku-50" value="CHITIETHOADON(&lt;u&gt;MAHANG&lt;/u&gt;,&lt;u&gt;SOHOADON&lt;/u&gt;,SLBAN,DONGGIABAN)" style="text;html=1;align=center;verticalAlign=middle;resizable=0;points=[];autosize=1;strokeColor=none;fillColor=none;fontSize=16;" vertex="1" parent="1">
          <mxGeometry x="-329" y="726" width="499" height="31" as="geometry" />
        </mxCell>
        <mxCell id="d0d8-uecb2wYhvY41Iku-51" value="HOADON(&lt;u&gt;SOHOADON&lt;/u&gt;,NGAYLAPHOADON,NGAYBAN,MAKH)" style="text;html=1;align=center;verticalAlign=middle;resizable=0;points=[];autosize=1;strokeColor=none;fillColor=none;fontSize=16;" vertex="1" parent="1">
          <mxGeometry x="-329.5" y="785" width="473" height="31" as="geometry" />
        </mxCell>
        <mxCell id="d0d8-uecb2wYhvY41Iku-52" value="" style="endArrow=classic;html=1;rounded=0;fontSize=12;startSize=8;endSize=8;curved=1;exitX=0.86;exitY=0.019;exitDx=0;exitDy=0;exitPerimeter=0;entryX=0.504;entryY=1.032;entryDx=0;entryDy=0;entryPerimeter=0;" edge="1" parent="1" source="d0d8-uecb2wYhvY41Iku-49" target="d0d8-uecb2wYhvY41Iku-48">
          <mxGeometry width="50" height="50" relative="1" as="geometry">
            <mxPoint x="-45" y="702" as="sourcePoint" />
            <mxPoint x="5" y="652" as="targetPoint" />
          </mxGeometry>
        </mxCell>
        <mxCell id="d0d8-uecb2wYhvY41Iku-53" value="" style="endArrow=classic;html=1;rounded=0;fontSize=12;startSize=8;endSize=8;curved=1;exitX=0.349;exitY=0.11;exitDx=0;exitDy=0;exitPerimeter=0;entryX=0.303;entryY=0.871;entryDx=0;entryDy=0;entryPerimeter=0;" edge="1" parent="1" source="d0d8-uecb2wYhvY41Iku-50" target="d0d8-uecb2wYhvY41Iku-49">
          <mxGeometry width="50" height="50" relative="1" as="geometry">
            <mxPoint x="59" y="667" as="sourcePoint" />
            <mxPoint x="-177" y="629" as="targetPoint" />
          </mxGeometry>
        </mxCell>
        <mxCell id="d0d8-uecb2wYhvY41Iku-54" value="" style="endArrow=classic;html=1;rounded=0;fontSize=12;startSize=8;endSize=8;curved=1;exitX=0.281;exitY=0.09;exitDx=0;exitDy=0;exitPerimeter=0;entryX=0.575;entryY=0.91;entryDx=0;entryDy=0;entryPerimeter=0;" edge="1" parent="1" source="d0d8-uecb2wYhvY41Iku-51" target="d0d8-uecb2wYhvY41Iku-50">
          <mxGeometry width="50" height="50" relative="1" as="geometry">
            <mxPoint x="-145" y="739" as="sourcePoint" />
            <mxPoint x="-186" y="693" as="targetPoint" />
          </mxGeometry>
        </mxCell>
        <mxCell id="d0d8-uecb2wYhvY41Iku-55" value="" style="endArrow=classic;html=1;rounded=0;fontSize=12;startSize=8;endSize=8;curved=1;entryX=0.495;entryY=0.945;entryDx=0;entryDy=0;entryPerimeter=0;exitX=0.96;exitY=0.039;exitDx=0;exitDy=0;exitPerimeter=0;" edge="1" parent="1" source="d0d8-uecb2wYhvY41Iku-51" target="d0d8-uecb2wYhvY41Iku-47">
          <mxGeometry width="50" height="50" relative="1" as="geometry">
            <mxPoint x="-187" y="798" as="sourcePoint" />
            <mxPoint x="-32" y="764" as="targetPoint" />
            <Array as="points">
              <mxPoint x="417" y="597" />
            </Array>
          </mxGeometry>
        </mxCell>
      </root>
    </mxGraphModel>
  </diagram>
</mxfile>
